HIERARCHY
ROOT Hips
{
 OFFSET 0.000000 0.000000 0.000000
 CHANNELS 6 Xposition Yposition Zposition Yrotation Xrotation Zrotation
 JOINT Chest
 {
  OFFSET 0.000000 14.632000 -0.008700
  CHANNELS 3 Yrotation Xrotation Zrotation
  JOINT Chest2
  {
   OFFSET 0.000000 8.637700 0.017800
   CHANNELS 3 Yrotation Xrotation Zrotation
   JOINT Chest3
   {
    OFFSET 0.000000 8.599900 0.000000
    CHANNELS 3 Yrotation Xrotation Zrotation
    JOINT Chest4
    {
     OFFSET 0.000000 8.591100 0.000000
     CHANNELS 3 Yrotation Xrotation Zrotation
     JOINT Neck
     {
      OFFSET 0.000000 13.139200 0.000000
      CHANNELS 3 Yrotation Xrotation Zrotation
      JOINT Head
      {
       OFFSET 0.000000 8.045900 0.037600
       CHANNELS 3 Yrotation Xrotation Zrotation
       End Site
       {
        OFFSET 0.000000 15.258900 0.019900
       }
      }
     }
     JOINT RightCollar
     {
      OFFSET -2.790300 8.725300 0.000000
      CHANNELS 3 Yrotation Xrotation Zrotation
      JOINT RightShoulder
      {
       OFFSET -13.162000 0.000000 0.000000
       CHANNELS 3 Yrotation Xrotation Zrotation
       JOINT RightElbow
       {
        OFFSET 0.000000 -23.347200 0.000000
        CHANNELS 3 Yrotation Xrotation Zrotation
        JOINT RightWrist
        {
         OFFSET 0.000000 -19.377400 0.019700
         CHANNELS 3 Yrotation Xrotation Zrotation
         End Site
         {
          OFFSET 0.000000 -14.645200 0.000000
         }
        }
       }
      }
     }
     JOINT LeftCollar
     {
      OFFSET 2.790300 8.725300 0.000000
      CHANNELS 3 Yrotation Xrotation Zrotation
      JOINT LeftShoulder
      {
       OFFSET 13.162000 0.000000 0.000000
       CHANNELS 3 Yrotation Xrotation Zrotation
       JOINT LeftElbow
       {
        OFFSET 0.000000 -23.347200 0.000000
        CHANNELS 3 Yrotation Xrotation Zrotation
        JOINT LeftWrist
        {
         OFFSET 0.000000 -19.377400 0.019700
         CHANNELS 3 Yrotation Xrotation Zrotation
         End Site
         {
          OFFSET 0.000000 -14.645200 0.000000
         }
        }
       }
      }
     }
    }
   }
  }
 }
 JOINT RightHip
 {
  OFFSET -11.965000 0.043200 0.004400
  CHANNELS 3 Yrotation Xrotation Zrotation
  JOINT RightKnee
  {
   OFFSET 0.000000 -37.808000 -0.003100
   CHANNELS 3 Yrotation Xrotation Zrotation
   JOINT RightAnkle
   {
    OFFSET 0.000000 -38.963200 0.011000
    CHANNELS 3 Yrotation Xrotation Zrotation
    JOINT RightToe
    {
     OFFSET 0.000000 -8.453600 14.155200
     CHANNELS 3 Yrotation Xrotation Zrotation
     End Site
     {
      OFFSET 0.000000 -1.360900 5.784800
     }
    }
   }
  }
 }
 JOINT LeftHip
 {
  OFFSET 11.965000 0.043200 0.004400
  CHANNELS 3 Yrotation Xrotation Zrotation
  JOINT LeftKnee
  {
   OFFSET 0.000000 -37.808000 -0.003100
   CHANNELS 3 Yrotation Xrotation Zrotation
   JOINT LeftAnkle
   {
    OFFSET 0.000000 -38.963200 0.011000
    CHANNELS 3 Yrotation Xrotation Zrotation
    JOINT LeftToe
    {
     OFFSET 0.000000 -8.453600 14.155200
     CHANNELS 3 Yrotation Xrotation Zrotation
     End Site
     {
      OFFSET 0.000000 -1.360900 5.784800
     }
    }
   }
  }
 }
}
MOTION
Frames: 11
Frame Time: 0.008333
-85.085754 61.170050 3.342257 178.361054 -30.440024 -3.509825 1.420144 21.946301 3.484035 0.100314 3.037663 0.363342 0.172967 4.933319 0.593404 0.936051 18.601594 2.394247 -4.706419 15.924987 -2.569124 -7.835404 -6.234809 -3.093571 2.049089 -3.146402 -0.879158 12.176286 -18.626228 -20.702795 143.814909 -85.926386 -109.306124 16.682624 -0.484213 -11.826620 -13.000920 -2.748697 -2.566544 29.348683 -29.912947 -5.085657 92.763579 -81.352456 -86.847799 0.868053 -5.828182 8.009608 7.123747 -39.964964 -4.095817 -4.077837 70.595858 -2.474635 3.030337 4.363150 6.157391 -0.054507 0.057343 -0.036903 -9.983041 -48.136532 4.999887 31.920205 69.233679 31.312063 -8.982296 30.163365 2.296060 1.164039 -23.441685 -6.451104
-85.084690 61.168634 3.344534 178.364162 -30.437276 -3.520293 1.410383 21.937971 3.493171 0.099008 3.036805 0.363680 0.164365 4.922954 0.595799 0.940890 18.610898 2.390589 -4.709262 15.872060 -2.646492 -7.813224 -6.332225 -3.235274 2.059458 -3.139224 -0.885965 12.157489 -18.637557 -20.670661 143.581164 -85.915999 -109.071688 16.677246 -0.492352 -11.854141 -12.985211 -2.747294 -2.561723 29.362780 -29.892491 -5.068181 93.972991 -81.406471 -88.150733 0.859587 -5.821315 8.011739 7.113990 -39.967425 -4.080622 -4.069051 70.588505 -2.472225 3.026656 4.369829 6.163803 -0.052571 0.057036 -0.036855 -10.008569 -48.144973 5.019409 31.897136 69.246938 31.295739 -8.974050 30.169682 2.284819 1.165279 -23.447739 -6.452488
-85.085826 61.167618 3.346260 178.366283 -30.439483 -3.520616 1.400603 21.927604 3.489509 0.098162 3.033962 0.364282 0.169193 4.930882 0.595083 0.939747 18.616033 2.391730 -4.710205 15.844704 -2.683756 -7.786880 -6.459784 -3.401734 2.057137 -3.141001 -0.881125 12.139104 -18.656909 -20.623041 143.232767 -85.897472 -108.736222 16.668131 -0.511891 -11.895591 -12.976631 -2.751800 -2.553633 29.368031 -29.880291 -5.062261 95.138846 -81.474251 -89.400912 0.850748 -5.814957 8.013140 7.114102 -39.965832 -4.079826 -4.056028 70.585937 -2.464674 3.023787 4.373396 6.163652 -0.053327 0.056779 -0.030715 -10.012159 -48.144369 5.020879 31.885297 69.249451 31.284801 -8.972307 30.171755 2.282108 1.158955 -23.448915 -6.450045
-85.087214 61.167907 3.346369 178.373624 -30.451596 -3.521864 1.394779 21.930249 3.486199 0.097030 3.038547 0.364660 0.169802 4.928876 0.594882 0.938323 18.614486 2.394212 -4.709368 15.784455 -2.775044 -7.759221 -6.533943 -3.516327 2.056369 -3.136746 -0.876576 12.129298 -18.664476 -20.600121 143.574862 -85.886423 -109.145071 16.676888 -0.509591 -11.866475 -12.973219 -2.747550 -2.552506 29.380298 -29.876458 -5.056594 96.272143 -81.546534 -90.623123 0.837390 -5.813774 8.022611 7.120559 -39.950842 -4.088237 -4.043036 70.583971 -2.447419 3.019138 4.374405 6.165335 -0.051806 0.057139 -0.029480 -10.015300 -48.132777 5.017162 31.874004 69.251318 31.273400 -8.969588 30.174969 2.279685 1.156367 -23.451161 -6.448192
-85.089025 61.167698 3.347806 178.377212 -30.460320 -3.519558 1.391343 21.935107 3.481680 0.096122 3.041023 0.364848 0.171972 4.922952 0.594147 0.935719 18.617223 2.394051 -4.702698 15.724795 -2.862704 -7.727853 -6.603888 -3.627919 2.055430 -3.135156 -0.868884 12.120322 -18.673264 -20.578273 143.449849 -85.876582 -109.023559 16.675259 -0.518419 -11.894611 -12.970681 -2.747119 -2.548239 29.387539 -29.871592 -5.055386 97.428572 -81.638786 -91.864571 0.818997 -5.813995 8.043471 7.127022 -39.940861 -4.096797 -4.050497 70.581350 -2.452947 3.022169 4.375846 6.167334 -0.051640 0.057770 -0.028519 -10.014911 -48.122813 5.013674 31.856715 69.251021 31.256346 -8.973752 30.174128 2.268846 1.154867 -23.448750 -6.441254
-85.091974 61.167565 3.349458 178.376478 -30.469999 -3.510884 1.390931 21.940009 3.473214 0.097673 3.036421 0.364316 0.173408 4.926353 0.594849 0.931559 18.614676 2.391822 -4.691126 15.686489 -2.930002 -7.691761 -6.685053 -3.754694 2.051677 -3.136090 -0.861825 12.112032 -18.676699 -20.553150 143.327360 -85.865924 -108.904463 16.673408 -0.519889 -11.897018 -12.964397 -2.755517 -2.546013 29.385999 -29.855996 -5.044355 98.615879 -81.748978 -93.136775 0.799385 -5.808166 8.071766 7.140937 -39.930973 -4.108432 -4.058733 70.579685 -2.464854 3.024284 4.376797 6.176191 -0.052767 0.058631 -0.029286 -10.007335 -48.108004 5.005192 31.844464 69.245069 31.242543 -8.990047 30.165491 2.254246 1.159351 -23.439061 -6.434761
-85.093755 61.167174 3.352129 178.382674 -30.476300 -3.510977 1.394487 21.933134 3.473076 0.090433 3.042259 0.364867 0.177638 4.929185 0.594915 0.930498 18.614143 2.392115 -4.679730 15.648628 -2.997217 -7.652027 -6.762194 -3.881395 2.045168 -3.137538 -0.854805 12.100588 -18.683960 -20.529047 143.420639 -85.851293 -109.016055 16.672968 -0.513248 -11.877283 -12.969843 -2.751926 -2.544408 29.412167 -29.845937 -5.038027 99.845888 -81.862545 -94.467863 0.775646 -5.798734 8.100415 7.139764 -39.923225 -4.112672 -4.061530 70.575379 -2.469988 3.025827 4.379075 6.180715 -0.052994 0.059611 -0.029764 -10.009477 -48.100169 5.003900 31.856863 69.236873 31.254440 -9.013488 30.161545 2.240768 1.163497 -23.432302 -6.428939
-85.095412 61.167262 3.354258 178.389923 -30.485588 -3.512716 1.392263 21.937360 3.471902 0.095625 3.043984 0.365938 0.175815 4.927626 0.594685 0.935535 18.617940 2.395032 -4.671895 15.609587 -3.063410 -7.608567 -6.833557 -4.007837 2.030302 -3.145111 -0.850236 12.093016 -18.689753 -20.501635 143.772161 -85.825473 -109.417171 16.666533 -0.531809 -11.903369 -12.982325 -2.758746 -2.545256 29.418791 -29.834220 -5.029159 101.119840 -82.004640 -95.827526 0.740133 -5.788389 8.117611 7.135765 -39.911265 -4.114193 -4.062676 70.570266 -2.473839 3.025950 4.380045 6.184886 -0.051429 0.060435 -0.030275 -10.013527 -48.088596 5.004786 31.862811 69.230854 31.258000 -9.030884 30.156210 2.231202 1.167618 -23.424750 -6.424592
-85.097437 61.167472 3.356205 178.395398 -30.495552 -3.512730 1.388060 21.945481 3.469117 0.098607 3.038693 0.365019 0.180729 4.929275 0.595173 0.932480 18.620318 2.397109 -4.655276 15.575357 -3.130601 -7.561960 -6.898786 -4.133671 2.024385 -3.148672 -0.847406 12.089418 -18.697761 -20.476160 143.951103 -85.800772 -109.626047 16.659750 -0.545516 -11.929406 -12.989707 -2.763221 -2.542295 29.426841 -29.817017 -5.025999 102.489668 -82.175453 -97.274613 0.690885 -5.771179 8.111013 7.132115 -39.898755 -4.110828 -4.090476 70.564943 -2.511121 3.031279 4.379315 6.196094 -0.051904 0.062300 -0.032015 -10.013529 -48.077817 5.000752 31.871262 69.226005 31.264611 -9.038522 30.152688 2.228003 1.164878 -23.419860 -6.421103
-85.099487 61.168012 3.357487 178.402776 -30.507745 -3.513995 1.392493 21.949645 3.469909 0.098965 3.039479 0.365445 0.176564 4.932194 0.594893 0.940736 18.620021 2.400981 -4.645911 15.544883 -3.196846 -7.510346 -6.958946 -4.259906 2.015152 -3.148688 -0.846703 12.082992 -18.711173 -20.450385 144.042992 -85.779163 -109.736940 16.651679 -0.552944 -11.951727 -13.001225 -2.767686 -2.539937 29.428927 -29.794977 -5.024526 104.029479 -82.405046 -98.883270 0.629487 -5.742500 8.084235 7.129018 -39.883429 -4.107802 -4.111638 70.560062 -2.540002 3.032318 4.378754 6.204398 -0.052673 0.062941 -0.031583 -10.014843 -48.064793 4.996985 31.870286 69.223939 31.261213 -9.040517 30.149703 2.227065 1.163837 -23.415560 -6.419011
-85.102384 61.168906 3.357784 178.410372 -30.523191 -3.512143 1.392658 21.957934 3.464243 0.107121 3.034516 0.367373 0.168723 4.939459 0.596794 0.940025 18.621454 2.399395 -4.627677 15.516261 -3.261625 -7.453321 -7.014769 -4.387601 2.013148 -3.148684 -0.842660 12.078804 -18.724562 -20.427687 144.151865 -85.756147 -109.863719 16.642862 -0.559306 -11.969651 -13.003798 -2.774373 -2.532400 29.431132 -29.768418 -5.027524 105.811349 -82.718496 -100.736801 0.553229 -5.702649 8.055264 7.129489 -39.864995 -4.113592 -4.108796 70.558248 -2.539879 3.028101 4.377635 6.205218 -0.050701 0.061662 -0.029364 -10.010527 -48.046265 4.985927 31.860322 69.220859 31.249908 -9.040912 30.143614 2.223304 1.162209 -23.408819 -6.414293
